<?xml version="1.0"?>
<svg xmlns="http://www.w3.org/2000/svg" viewBox="0 0 64 64" width="512" height="512"><g id="fast_delivery" data-name="fast delivery"><path d="M53,25H43a4.979,4.979,0,0,0-4.96,4.62L32,37.92a9.008,9.008,0,0,0-7.75-8.89l-2.71-.9L21,27.59V24.74A7.007,7.007,0,0,0,23.92,20H25a2.006,2.006,0,0,0,2-2V17a2.006,2.006,0,0,0-2-2H24v-.28A6.981,6.981,0,0,0,27,9V5a1,1,0,0,0-1-1H14a7.008,7.008,0,0,0-7,7v2a3.021,3.021,0,0,0,1.04,2.26A1.984,1.984,0,0,0,7,17v1a2.006,2.006,0,0,0,2,2h1.08A7.007,7.007,0,0,0,13,24.74v2.85l-.54.54-2.71.9A9,9,0,0,0,2,38V61a1,1,0,0,0,1,1H29a3.009,3.009,0,0,0,3-3V52.29L45.55,31H49a5,5,0,0,0,5-5A1,1,0,0,0,53,25ZM25,17v1H24V17ZM10,18H9V17h1Zm.55-5.89A.988.988,0,0,0,10,13v1a1,1,0,0,1-1-1V11a5,5,0,0,1,5-5H25V9a4.971,4.971,0,0,1-1.28,3.32,1.072,1.072,0,0,0-.48-.29l-8-2a.978.978,0,0,0-.69.08ZM12,19V13.62l3.12-1.56L22,13.78V19a5,5,0,0,1-10,0Zm7.29,9.71.3.29L17,31.59,14.41,29l.3-.29A1.033,1.033,0,0,0,15,28V25.71a7.042,7.042,0,0,0,4,0V28A1.033,1.033,0,0,0,19.29,28.71Zm-6.56,1.43,3.56,3.57a1.008,1.008,0,0,0,1.42,0l3.56-3.57,1.13.38L18.49,36H15.51L11.6,30.52ZM18.82,42l1.11,6.66L17,51.59l-2.93-2.93L15.18,42Zm-3.31-2,.34-2h2.3l.34,2ZM8,60H4V50H8Zm22.16-8.54A.949.949,0,0,0,30,52v7a1,1,0,0,1-1,1H10V49a1,1,0,0,0-1-1H4V38a7.015,7.015,0,0,1,5.55-6.91l4.4,6.15-1.94,11.6a1.011,1.011,0,0,0,.28.87l4,4a1.014,1.014,0,0,0,1.42,0l4-4a1.011,1.011,0,0,0,.28-.87l-1.94-11.6,4.4-6.15A7.015,7.015,0,0,1,30,38v3a1,1,0,0,0,1.81.59L39.51,31h3.67ZM49,29H40.17A3.014,3.014,0,0,1,43,27h8.83A3.014,3.014,0,0,1,49,29Z"/><path d="M53,5H41a3.009,3.009,0,0,0-3,3V20a3.009,3.009,0,0,0,3,3H53a3.009,3.009,0,0,0,3-3V8A3.009,3.009,0,0,0,53,5ZM46,7h2v4.59l-.29-.3a1.008,1.008,0,0,0-1.42,0l-.29.3Zm8,13a1,1,0,0,1-1,1H41a1,1,0,0,1-1-1V8a1,1,0,0,1,1-1h3v7a.987.987,0,0,0,.62.92,1,1,0,0,0,1.09-.21L47,13.41l1.29,1.3A1.007,1.007,0,0,0,49,15a.838.838,0,0,0,.38-.08A.987.987,0,0,0,50,14V7h3a1,1,0,0,1,1,1Z"/><path d="M50,38A12,12,0,1,0,62,50,12.013,12.013,0,0,0,50,38Zm0,22A10,10,0,1,1,60,50,10.011,10.011,0,0,1,50,60Z"/><rect x="14" y="15" width="2" height="2"/><rect x="18" y="15" width="2" height="2"/><path d="M51,42H49v8a1,1,0,0,0,1,1h6V49H51Z"/></g></svg>
