<?xml version="1.0"?>
<svg xmlns="http://www.w3.org/2000/svg" viewBox="0 0 64 64" width="512" height="512"><g id="productivity"><path d="M51,11a4,4,0,1,0-4,4A4,4,0,0,0,51,11Zm-4,2a2,2,0,1,1,2-2A2,2,0,0,1,47,13Z"/><path d="M61.24,13.03l-.67-.17.36-.59a1.014,1.014,0,0,0-.15-1.22L57.95,8.22a1.014,1.014,0,0,0-1.22-.15l-.59.36-.17-.67a.982.982,0,0,0-.94-.75,1,1,0,0,0-.25-.96L51.95,3.22a1.012,1.012,0,0,0-1.22-.15l-.59.36-.17-.67A1,1,0,0,0,49,2H45a1,1,0,0,0-.97.76l-.17.67-.59-.36a1.014,1.014,0,0,0-1.22.15L39.22,6.05a1,1,0,0,0-.15,1.22l.36.59-.67.17A1,1,0,0,0,38,9v4a1,1,0,0,0,.76.97l.67.17-.36.59a1,1,0,0,0,.15,1.22l2.83,2.83a1,1,0,0,0,1.22.15l.59-.36.17.67a.982.982,0,0,0,.94.75,1,1,0,0,0,.25.96l2.83,2.83a1.014,1.014,0,0,0,1.22.15l.59-.36.17.67A1,1,0,0,0,51,25h4a1,1,0,0,0,.97-.76l.17-.67.59.36a1.014,1.014,0,0,0,1.22-.15l2.83-2.83a1.014,1.014,0,0,0,.15-1.22l-.36-.59.67-.17A1,1,0,0,0,62,18V14A1,1,0,0,0,61.24,13.03ZM54.96,15.7c.01.1.04.2.04.3a2.006,2.006,0,0,1-2,2,1.967,1.967,0,0,1-.24-.03l2.02-2.02A1.138,1.138,0,0,0,54.96,15.7Zm-9.48,1.08a1.007,1.007,0,0,0-.59-.68.989.989,0,0,0-.9.07l-1.08.64-1.72-1.72.65-1.08a1.019,1.019,0,0,0,.06-.9,1.007,1.007,0,0,0-.68-.59L40,12.22V9.78l1.22-.3a1.007,1.007,0,0,0,.68-.59,1.019,1.019,0,0,0-.06-.9l-.65-1.08,1.72-1.72,1.08.64a.987.987,0,0,0,.9.07,1.007,1.007,0,0,0,.59-.68L45.78,4h2.44l.3,1.22a1.007,1.007,0,0,0,.59.68.989.989,0,0,0,.9-.07l1.08-.64,1.72,1.72-.65,1.08a1.019,1.019,0,0,0-.06.9,1.007,1.007,0,0,0,.68.59l1.22.3v2.44l-1.22.3a1.007,1.007,0,0,0-.68.59,1.019,1.019,0,0,0,.06.9l.65,1.08-1.72,1.72-1.08-.64a.989.989,0,0,0-.9-.07,1.007,1.007,0,0,0-.59.68L48.22,18H45.78ZM60,17.22l-1.22.3a.984.984,0,0,0-.68.59,1,1,0,0,0,.06.89l.65,1.08-1.72,1.73L56,21.16a.967.967,0,0,0-.89-.06.984.984,0,0,0-.59.68L54.22,23H51.78l-.3-1.22a.984.984,0,0,0-.59-.68.967.967,0,0,0-.89.06l-1.09.65-1.72-1.73.05-.08H49a1,1,0,0,0,.97-.76l.13-.5A3.931,3.931,0,0,0,53,20a4.006,4.006,0,0,0,2.95-6.71A.929.929,0,0,0,56,13V10.84l1.09-.65,1.72,1.73L58.16,13a1,1,0,0,0-.06.89.984.984,0,0,0,.68.59l1.22.3Z"/><path d="M42,41c0-5.38-5.17-9-10-9s-10,3.62-10,9a7.663,7.663,0,0,0,3.91,7.04c.18.12.38.26.56.4A2.96,2.96,0,0,0,25.78,53,2.974,2.974,0,0,0,25,55a3.01,3.01,0,0,0,2,2.82V59a3.009,3.009,0,0,0,3,3h4a3.009,3.009,0,0,0,3-3V57.82A3.01,3.01,0,0,0,39,55a2.974,2.974,0,0,0-.78-2,2.96,2.96,0,0,0-.69-4.56c.18-.14.38-.28.56-.4A7.663,7.663,0,0,0,42,41ZM35,59a1,1,0,0,1-1,1H30a1,1,0,0,1-1-1V58h6Zm1-3H28a1,1,0,0,1,0-2h8a1,1,0,0,1,0,2Zm0-4H28a1,1,0,0,1,0-2h8a1,1,0,0,1,0,2Zm.95-5.61A5.162,5.162,0,0,0,35.25,48h-6.5a5.162,5.162,0,0,0-1.7-1.61C25.62,45.4,24,44.28,24,41c0-4.12,4.22-7,8-7s8,2.88,8,7C40,44.28,38.38,45.4,36.95,46.39Z"/><path d="M12,22A10,10,0,1,0,2,12,10.011,10.011,0,0,0,12,22ZM12,4a8,8,0,1,1-8,8A8.009,8.009,0,0,1,12,4Z"/><path d="M19.272,28.687l-.707-.708,2.829-2.829-1.415-1.414-1.414,1.415-1.414-1.415L15.737,25.15l1.414,1.415-.707.707a1,1,0,0,0,0,1.415l2.121,2.121a1,1,0,0,0,1.414,0L22.1,28.687l.707.707-2.829,2.828,1.415,1.414,1.414-1.414,1.414,1.414,1.414-1.414-1.414-1.414.707-.707a1,1,0,0,0,0-1.414l-2.121-2.122a1,1,0,0,0-1.414,0Z"/><path d="M46.85,26.57l1.41,1.41-1.41,1.41-2.83-2.83-.71.71,2.13,2.12a1.014,1.014,0,0,1,0,1.42l-2.13,2.12a1,1,0,0,1-1.41,0l-.71-.71-1.41,1.42-1.42-1.42,1.42-1.41-1.42-1.42,1.42-1.41,2.83,2.83.7-.71-2.12-2.12a1,1,0,0,1,0-1.41l2.12-2.13a1.047,1.047,0,0,1,1.42,0l.71.71,1.41-1.41,1.41,1.41Z"/><path d="M12,13h4V11H13V6H11v6A1,1,0,0,0,12,13Z"/><path d="M6,32a25.943,25.943,0,0,1,1.479-8.667l-1.885-.666A28.03,28.03,0,0,0,23.7,58.75l.592-1.91A25.875,25.875,0,0,1,6,32Z"/><path d="M57.356,26.222A26.16,26.16,0,0,1,58,32,25.875,25.875,0,0,1,39.7,56.84l.592,1.91a28.04,28.04,0,0,0,19.01-32.972Z"/><path d="M36.816,6.444l.368-1.965A28.263,28.263,0,0,0,22.667,5.594l.666,1.885A26.287,26.287,0,0,1,36.816,6.444Z"/></g></svg>
